<svg xmlns="http://www.w3.org/2000/svg" width="37" height="36" viewBox="0 0 37 36">
    <path fill="#2ecc71" d="M36.012 20.328l-8.978 8.937-1.5 1.49a14.861 14.861 0 0 1-20.949 0 14.7 14.7 0 0 1 0-20.854l1.5-1.489 2.993 2.979-1.5 1.49a10.5 10.5 0 0 0 0 14.9 10.614 10.614 0 0 0 14.963 0l1.5-1.489 8.978-8.938a2.123 2.123 0 0 1 2.993 0 2.1 2.1 0 0 1 0 2.974zm-14.964 2.979a6.368 6.368 0 0 1-8.978 0 6.3 6.3 0 0 1 0-8.937l2.993-2.979a2.123 2.123 0 0 1 2.993 0 2.1 2.1 0 0 1 0 2.979l-2.993 2.979a2.1 2.1 0 0 0 0 2.979 2.123 2.123 0 0 0 2.993 0l4.489-4.469a6.3 6.3 0 0 0 0-8.937 6.368 6.368 0 0 0-8.978 0l-4.489 4.469-2.993-2.979 4.489-4.469a10.615 10.615 0 0 1 14.963 0 10.5 10.5 0 0 1 0 14.9z"/>
</svg>
