<svg xmlns="http://www.w3.org/2000/svg"><symbol id="icon-graphic-design" viewBox="0 0 31 45">
    <path fill-rule="evenodd" d="M28.222 4.972L21.138.811a5.4 5.4 0 0 0-7.449 2.03L.057 26.863l.957 18.078 15.572-8.37L30.218 12.55a5.6 5.6 0 0 0-1.996-7.578zm-5.087 3.417L20.774 7a2.7 2.7 0 0 0-3.724 1.015L6.143 27.235l.238 8.386 6.846-4.221 10.906-19.222a2.8 2.8 0 0 0-.998-3.789zm-.366 6.191l-7.084-4.16-2.726 4.8 7.084 4.161z"/>
</symbol><symbol id="icon-marketing" viewBox="0 0 36 36">
    <path d="M27.125 26.625A8.875 8.875 0 0 1 18.25 35.5H9.375a8.849 8.849 0 0 1-5.307-15.95 15.272 15.272 0 0 1-1.349-6.238C2.719 5.96 7.686 0 13.813 0s11.094 5.96 11.094 13.313a15.271 15.271 0 0 1-1.349 6.238 8.833 8.833 0 0 1 3.567 7.074zM13.813 4.438c-3.676 0-6.656 3.973-6.656 8.875s2.98 8.875 6.656 8.875 6.656-3.974 6.656-8.875-2.98-8.875-6.656-8.875zm7.3 18.825a10.055 10.055 0 0 1-7.3 3.362 10.055 10.055 0 0 1-7.3-3.362 4.42 4.42 0 0 0 2.865 7.8h8.872a4.42 4.42 0 0 0 2.865-7.8zM36 25.516a7.766 7.766 0 0 1-7.765 7.766h-4.17a8.824 8.824 0 0 0 2.747-4.438h1.423a3.328 3.328 0 0 0 0-6.657h-2.341a8.985 8.985 0 0 0-2.364-2.577 14.516 14.516 0 0 0 .7-1.86h3.965a8.677 8.677 0 0 0 1.152-4.437c0-3.676-1.987-6.657-4.437-6.657a3.118 3.118 0 0 0-1.376.36 13.159 13.159 0 0 0-2.441-3.679 7.384 7.384 0 0 1 3.817-1.118c4.9 0 8.875 4.967 8.875 11.094a13.1 13.1 0 0 1-1.3 5.711A7.748 7.748 0 0 1 36 25.516z"/>
</symbol><symbol id="icon-seo" viewBox="0 0 37 36">
    <path d="M36.012 20.328l-8.978 8.937-1.5 1.49a14.861 14.861 0 0 1-20.949 0 14.7 14.7 0 0 1 0-20.854l1.5-1.489 2.993 2.979-1.5 1.49a10.5 10.5 0 0 0 0 14.9 10.614 10.614 0 0 0 14.963 0l1.5-1.489 8.978-8.938a2.123 2.123 0 0 1 2.993 0 2.1 2.1 0 0 1 0 2.974zm-14.964 2.979a6.368 6.368 0 0 1-8.978 0 6.3 6.3 0 0 1 0-8.937l2.993-2.979a2.123 2.123 0 0 1 2.993 0 2.1 2.1 0 0 1 0 2.979l-2.993 2.979a2.1 2.1 0 0 0 0 2.979 2.123 2.123 0 0 0 2.993 0l4.489-4.469a6.3 6.3 0 0 0 0-8.937 6.368 6.368 0 0 0-8.978 0l-4.489 4.469-2.993-2.979 4.489-4.469a10.615 10.615 0 0 1 14.963 0 10.5 10.5 0 0 1 0 14.9z"/>
</symbol><symbol id="icon-web-design" viewBox="0 0 41 41">
    <path d="M20.25 41A20.25 20.25 0 1 1 40.5 20.75 20.25 20.25 0 0 1 20.25 41zM5.82 20.418c1.422-.158 4.363-.375 5.752.333a21.647 21.647 0 0 1 5.016 4.19l-5.768 6.695a14.334 14.334 0 0 0 23.288-14.807 27.192 27.192 0 0 1-3.563 3.136c-2.026-.223-1.042 2.279-1.042 2.279.854 5.543-2.085 6.227-2.085 6.227-4.008 4.117-7.169-4.828-7.169-4.828-.742-4.979-1.169-6.571-1.169-6.571-5.131-3.207-.076-4.375 1.011-4.561h.032c.262-.038.2-.041-.032 0-1.451.2-1.174-.683-2.053-2.279-.887-1.611-1.973.27-2.084 0s-.624 2.951-2.085 3.42-1.042-3.42-1.042-3.42c-2.82 4.319-3.742 3.217-4.038 1.8a14.382 14.382 0 0 0-2.969 8.386z"/>
</symbol></svg>