<svg xmlns="http://www.w3.org/2000/svg"><symbol id="icon-dribbble" viewBox="0 0 178.92 178.93">
    <path d="M177.1 107.49a89.36 89.36 0 0 1-5.21 16.8 90.53 90.53 0 0 1-8.25 15.22 92.17 92.17 0 0 1-10.92 13.23 91.24 91.24 0 0 1-13.22 10.9A89.48 89.48 0 0 1 7.04 54.65a89.58 89.58 0 0 1 47.6-47.6A89.46 89.46 0 0 1 177.1 107.49zm-45.25 43.68a74.68 74.68 0 0 0 31-46.62c.23-1.13.34-2.29.52-3.43-.62-.18-1.46-.41-2.41-.65l-.45-.12c-2.16-.54-5-1.17-8.44-1.73a109.81 109.81 0 0 0-34.74-.3 338.69 338.69 0 0 1 14.52 52.85zm-71.54 7.3a75 75 0 0 0 58.29 0l.41-.2a322.3 322.3 0 0 0-16.05-56.44l-.49.15a126.34 126.34 0 0 0-12.69 5.24c-.56.26-1.16.51-1.71.79-3.68 1.8-7.07 3.7-10.23 5.65l-1.75 1.1c-3 2-5.89 4-8.47 6l-1.18 1c-2.61 2.1-5 4.2-7.18 6.25a95.618 95.618 0 0 0-5.77 6.06c-.24.27-.5.55-.73.82a97.174 97.174 0 0 0-4.09 5.1l-.65.88c-1.08 1.5-2 2.89-2.78 4.07l-.35.56c-.7 1.13-1.3 2.15-1.67 2.85 1.43 1.13 2.87 2.26 4.37 3.28a75.72 75.72 0 0 0 12.71 6.91zM14.7 87.07c0 .81-.12 1.6-.12 2.41a76.17 76.17 0 0 0 1.52 15.08 74 74 0 0 0 4.36 14.06 76 76 0 0 0 6.9 12.72 77 77 0 0 0 6.23 7.53c.51-.8 1.27-2 2.16-3.26l.44-.64c.94-1.35 2.09-2.91 3.4-4.61l.77-1c1.4-1.78 3-3.68 4.76-5.7l.82-.9c1.94-2.15 4-4.38 6.4-6.65 2.31-2.22 4.88-4.47 7.59-6.7.42-.34.8-.67 1.23-1 2.66-2.12 5.53-4.19 8.56-6.18l1.73-1.12a107.59 107.59 0 0 1 9.9-5.57c.53-.25 1.07-.49 1.61-.74a99.26 99.26 0 0 1 11.8-4.74c1-.31 2-.55 2.95-.83-1.94-4.38-4-8.76-6.18-13.08-30.91 9.24-60.74 10.72-72.79 10.89-1.71.03-3.1.04-4.04.03zm43.12-65.39a74.4 74.4 0 0 0-30.45 25.93 76 76 0 0 0-6.9 12.72 74.24 74.24 0 0 0-4.2 13.4h3.34c2.75-.05 6.55-.19 11.19-.5a294.9 294.9 0 0 0 47.34-7q3.48-.82 7-1.76a464.13 464.13 0 0 0-27.32-42.79zm73.51 5.7a75.24 75.24 0 0 0-57-11.27c-.63.13-1.25.35-1.89.49a393.17 393.17 0 0 1 27.52 43.09c3-1.12 5.78-2.31 8.39-3.53l.15-.07c18.34-8.59 27.51-18.9 30.35-22.52a76.29 76.29 0 0 0-7.5-6.19zm31.5 47a75 75 0 0 0-4.37-14.05 76 76 0 0 0-6.9-12.72c-1.25-1.84-2.85-3.43-4.26-5.15-3.07 3.83-13.17 14.81-32.28 24.43l-.6.3c-2.7 1.34-5.52 2.63-8.58 3.88 1.8 3.69 3.54 7.42 5.15 11.19.57 1.35 1.05 2.64 1.6 4 2.72-.35 5.43-.58 8.11-.75l1.35-.07c2.29-.12 4.54-.2 6.76-.21h1.15c2.54 0 5 0 7.42.14h.52c2.16.1 4.24.23 6.23.38l1.42.12c1.95.16 3.81.35 5.54.54h.35c1.86.22 3.54.44 5.1.67l1.12.16c1.16.18 2.22.34 3.15.5l.77.13c1.11.19 2 .36 2.72.5a76.5 76.5 0 0 0-1.47-14z"/>
</symbol><symbol id="icon-facebook" viewBox="0 0 90 170">
    <path d="M60 170l-40.018.067.018-70.062H0V60h20l.714-14.03C20.715 23.8 33.189.008 60 .008h30v40H70c-10.44 0-10 2.923-10 10V60h30l-10 40H60v70z"/>
</symbol><symbol id="icon-google_plus" viewBox="0 0 190 180">
    <path d="M94.76 144.63a19.46 19.46 0 0 0-.49-4.38q-.49-2.11-1-3.89a13.41 13.41 0 0 0-1.89-3.73l-2.27-3.3a20.82 20.82 0 0 0-2.87-3.19q-1.95-1.84-3-2.75t-3.46-2.76q-2.43-1.84-3.35-2.49l-3.57-2.49q-2.65-1.84-3.3-2.27a49.06 49.06 0 0 0-5.41-.22 86 86 0 0 0-11.47.76A67.41 67.41 0 0 0 41 116.61a42.45 42.45 0 0 0-10.6 5 23.73 23.73 0 0 0-7.46 8.11A22.84 22.84 0 0 0 20 141.27a23.24 23.24 0 0 0 3.84 13.15 27.17 27.17 0 0 0 10.06 9.09 55 55 0 0 0 13 4.92 59.21 59.21 0 0 0 13.74 1.62 53.27 53.27 0 0 0 12.17-1.35 40.91 40.91 0 0 0 10.87-4.22 21.32 21.32 0 0 0 8.06-7.95 23.12 23.12 0 0 0 3.02-11.9zm-13-93.24A58.22 58.22 0 0 0 80 37.59a71.11 71.11 0 0 0-5.08-14.12 31 31 0 0 0-9.09-11.25A20.74 20.74 0 0 0 52.9 7.79q-10.06 0-15.58 7.46A29.2 29.2 0 0 0 31.8 33.1 49.68 49.68 0 0 0 33 43.81a55.34 55.34 0 0 0 3.84 11.25 52.38 52.38 0 0 0 6.06 10.11 27.88 27.88 0 0 0 8.44 7.31 21 21 0 0 0 10.49 2.81q10.5 0 15.2-6.54t4.75-17.36zM67.61 0h47.27l-14.6 8.54h-14.6a32.31 32.31 0 0 1 11.9 13.63 41.64 41.64 0 0 1 4.22 18.28 38.08 38.08 0 0 1-2.5 14.22 31.47 31.47 0 0 1-6.06 10q-3.57 3.79-7.14 7a42.93 42.93 0 0 0-6.1 6.6 12.16 12.16 0 0 0-2.49 7.3 9.89 9.89 0 0 0 1.79 5.52 25.58 25.58 0 0 0 4.7 5.19q2.86 2.49 6.33 5.19t6.92 6a56.82 56.82 0 0 1 6.33 7.14 32.24 32.24 0 0 1 4.65 9.2 36.09 36.09 0 0 1 1.77 11.52q0 17.31-15.14 30.5Q78.43 180 49.44 180a78.78 78.78 0 0 1-12.93-1.08 68 68 0 0 1-13.2-3.62 49.59 49.59 0 0 1-11.74-6.3 29.11 29.11 0 0 1-8.33-9.62A26.78 26.78 0 0 1 0 146.25q0-6.6 4-14.6a33 33 0 0 1 10.39-12A52.25 52.25 0 0 1 30.07 112a123.81 123.81 0 0 1 16.77-3.89 127.23 127.23 0 0 1 16.22-1.46q-6.92-9-6.92-16.12a15 15 0 0 1 .22-2.53 12.13 12.13 0 0 1 .54-2.11l.86-2.32a23 23 0 0 0 .76-2.33 62.2 62.2 0 0 1-7.57.54 39.41 39.41 0 0 1-27.64-10.6 34.64 34.64 0 0 1-11.52-26.61 40.43 40.43 0 0 1 10.28-27.1 45.76 45.76 0 0 1 25.31-15.3A96.83 96.83 0 0 1 67.61 0zM190 30v10h-30v30h-10V40h-30V30h30V0h10v30z"/>
</symbol><symbol id="icon-linkedin" viewBox="0 0 150.07 150.07">
    <path d="M114.28 150V93.44c0-13.7-5.53-21.64-14.2-21.64a21.58 21.58 0 0 0-18.38 9.85c-1.22 2-2 6.36-2 9.39v58.67L50 150V40l25.95 1.82 1.49 18.75h.64c4.23-7.57 14.66-17.06 32.09-17.06 21.22 0 39.9 14.4 39.9 45.72v60.48zM0 40h30v110l-30-.28zm17.11-7C6.94 33 .34 25.58.34 16.45.34 7.1 7.15-.07 17.56-.07s16.76 7.17 17 16.52C34.54 25.58 27.95 33 17.11 33z" transform="translate(0 .07)"/>
</symbol><symbol id="icon-pinterest" viewBox="0 0 200.01 200.01">
  <path d="M200 100a97.82 97.82 0 0 1-13.41 50.2 99.52 99.52 0 0 1-36.39 36.39A97.76 97.76 0 0 1 100 200a99 99 0 0 1-28.38-4.16q7.68-12.12 10.16-21.36 1.17-4.43 7-27.46 2.6 5.07 9.5 8.79a31 31 0 0 0 14.84 3.71 46.91 46.91 0 0 0 28.12-8.92q12.37-8.92 19.14-24.55t6.77-35.16A53.56 53.56 0 0 0 159.44 63Q151.7 50 137 41.8a67.05 67.05 0 0 0-33.2-8.2 83.66 83.66 0 0 0-25.52 3.77 66.56 66.56 0 0 0-20.12 10 68.48 68.48 0 0 0-14.21 14.41 59.67 59.67 0 0 0-8.72 16.87 56.74 56.74 0 0 0-2.8 17.44q0 13.54 5.21 23.83a29.36 29.36 0 0 0 15.23 14.46q3.9 1.56 4.95-2.6c.17-.61.52-2 1-4s.87-3.38 1-3.91a6 6 0 0 0-1.44-5.6q-6.64-7.94-6.64-19.65a47 47 0 0 1 13.69-33.83Q79 50.64 101 50.65q19.66 0 30.66 10.68t11 27.73q0 22.14-8.92 37.64t-22.85 15.49a15.93 15.93 0 0 1-12.76-5.66q-4.82-5.66-3-13.61 1-4.54 3.45-12.17t3.91-13.42A40.33 40.33 0 0 0 104 87.5a16.49 16.49 0 0 0-3.52-10.8q-3.52-4.3-10-4.3-8.07 0-13.67 7.42t-5.6 18.49q0 9.51 3.25 15.89l-12.87 54.42q-2.21 9.12-1.69 23.05a99.7 99.7 0 0 1-43.36-36.59A96.91 96.91 0 0 1 0 100a97.79 97.79 0 0 1 13.41-50.19 99.5 99.5 0 0 1 36.4-36.39A97.75 97.75 0 0 1 100 0a97.76 97.76 0 0 1 50.2 13.42 99.53 99.53 0 0 1 36.39 36.4A97.82 97.82 0 0 1 200 100z"/>
</symbol><symbol id="icon-twitter" viewBox="0 0 170 130">
    <path d="M65 131H45c-1.6-.3-3.2-.8-4.8-1-13.1-1.9-25.4-5.9-38.1-13.2 18.6.7 34.8-2.9 48.7-12.9-6.2-2.6-12.5-4.7-18.2-7.9-6-3.4-9.8-8.9-12.5-16.2h13.3c-18-8.7-27.2-20.6-24.8-32 4.4 1.1 8.7 2.2 14.2 3.6C7 34 4.1 20.3 13.1 7.7c19.2 20.6 42.7 31.9 71 33.6.1-1.2.1-1.6.1-2.1-1.2-19.7 8-32.4 27-37.3.6-.2 1.2-.6 1.7-.9h11c5.8 2.7 11.6 5.5 17.5 8 2.1.9 4.7 1.9 6.7 1.4 5.8-1.5 11.5-3.8 17.2-5.8.3.3.6.6 1 .8-4.2 5.2-8.4 10.3-13 16 5.6-1.4 10.9-2.7 16.2-4-3.8 5-8.4 9.1-12.6 13.5-1.5 1.6-3.1 4-3.1 6-.9 42.5-28.8 78.7-69.9 90-6.2 1.8-12.6 2.8-18.9 4.1z"/>
</symbol></svg>