<svg xmlns="http://www.w3.org/2000/svg" width="36" height="36" viewBox="0 0 36 36">
    <path d="M27.125 26.625A8.875 8.875 0 0 1 18.25 35.5H9.375a8.849 8.849 0 0 1-5.307-15.95 15.272 15.272 0 0 1-1.349-6.238C2.719 5.96 7.686 0 13.813 0s11.094 5.96 11.094 13.313a15.271 15.271 0 0 1-1.349 6.238 8.833 8.833 0 0 1 3.567 7.074zM13.813 4.438c-3.676 0-6.656 3.973-6.656 8.875s2.98 8.875 6.656 8.875 6.656-3.974 6.656-8.875-2.98-8.875-6.656-8.875zm7.3 18.825a10.055 10.055 0 0 1-7.3 3.362 10.055 10.055 0 0 1-7.3-3.362 4.42 4.42 0 0 0 2.865 7.8h8.872a4.42 4.42 0 0 0 2.865-7.8zM36 25.516a7.766 7.766 0 0 1-7.765 7.766h-4.17a8.824 8.824 0 0 0 2.747-4.438h1.423a3.328 3.328 0 0 0 0-6.657h-2.341a8.985 8.985 0 0 0-2.364-2.577 14.516 14.516 0 0 0 .7-1.86h3.965a8.677 8.677 0 0 0 1.152-4.437c0-3.676-1.987-6.657-4.437-6.657a3.118 3.118 0 0 0-1.376.36 13.159 13.159 0 0 0-2.441-3.679 7.384 7.384 0 0 1 3.817-1.118c4.9 0 8.875 4.967 8.875 11.094a13.1 13.1 0 0 1-1.3 5.711A7.748 7.748 0 0 1 36 25.516z"/>
</svg>
