<svg xmlns="http://www.w3.org/2000/svg" viewBox="0 0 190 180">
    <path d="M94.76 144.63a19.46 19.46 0 0 0-.49-4.38q-.49-2.11-1-3.89a13.41 13.41 0 0 0-1.89-3.73l-2.27-3.3a20.82 20.82 0 0 0-2.87-3.19q-1.95-1.84-3-2.75t-3.46-2.76q-2.43-1.84-3.35-2.49l-3.57-2.49q-2.65-1.84-3.3-2.27a49.06 49.06 0 0 0-5.41-.22 86 86 0 0 0-11.47.76A67.41 67.41 0 0 0 41 116.61a42.45 42.45 0 0 0-10.6 5 23.73 23.73 0 0 0-7.46 8.11A22.84 22.84 0 0 0 20 141.27a23.24 23.24 0 0 0 3.84 13.15 27.17 27.17 0 0 0 10.06 9.09 55 55 0 0 0 13 4.92 59.21 59.21 0 0 0 13.74 1.62 53.27 53.27 0 0 0 12.17-1.35 40.91 40.91 0 0 0 10.87-4.22 21.32 21.32 0 0 0 8.06-7.95 23.12 23.12 0 0 0 3.02-11.9zm-13-93.24A58.22 58.22 0 0 0 80 37.59a71.11 71.11 0 0 0-5.08-14.12 31 31 0 0 0-9.09-11.25A20.74 20.74 0 0 0 52.9 7.79q-10.06 0-15.58 7.46A29.2 29.2 0 0 0 31.8 33.1 49.68 49.68 0 0 0 33 43.81a55.34 55.34 0 0 0 3.84 11.25 52.38 52.38 0 0 0 6.06 10.11 27.88 27.88 0 0 0 8.44 7.31 21 21 0 0 0 10.49 2.81q10.5 0 15.2-6.54t4.75-17.36zM67.61 0h47.27l-14.6 8.54h-14.6a32.31 32.31 0 0 1 11.9 13.63 41.64 41.64 0 0 1 4.22 18.28 38.08 38.08 0 0 1-2.5 14.22 31.47 31.47 0 0 1-6.06 10q-3.57 3.79-7.14 7a42.93 42.93 0 0 0-6.1 6.6 12.16 12.16 0 0 0-2.49 7.3 9.89 9.89 0 0 0 1.79 5.52 25.58 25.58 0 0 0 4.7 5.19q2.86 2.49 6.33 5.19t6.92 6a56.82 56.82 0 0 1 6.33 7.14 32.24 32.24 0 0 1 4.65 9.2 36.09 36.09 0 0 1 1.77 11.52q0 17.31-15.14 30.5Q78.43 180 49.44 180a78.78 78.78 0 0 1-12.93-1.08 68 68 0 0 1-13.2-3.62 49.59 49.59 0 0 1-11.74-6.3 29.11 29.11 0 0 1-8.33-9.62A26.78 26.78 0 0 1 0 146.25q0-6.6 4-14.6a33 33 0 0 1 10.39-12A52.25 52.25 0 0 1 30.07 112a123.81 123.81 0 0 1 16.77-3.89 127.23 127.23 0 0 1 16.22-1.46q-6.92-9-6.92-16.12a15 15 0 0 1 .22-2.53 12.13 12.13 0 0 1 .54-2.11l.86-2.32a23 23 0 0 0 .76-2.33 62.2 62.2 0 0 1-7.57.54 39.41 39.41 0 0 1-27.64-10.6 34.64 34.64 0 0 1-11.52-26.61 40.43 40.43 0 0 1 10.28-27.1 45.76 45.76 0 0 1 25.31-15.3A96.83 96.83 0 0 1 67.61 0zM190 30v10h-30v30h-10V40h-30V30h30V0h10v30z"/>
</svg>
