<svg xmlns="http://www.w3.org/2000/svg" width="41" height="41" viewBox="0 0 41 41">
    <path d="M20.25 41A20.25 20.25 0 1 1 40.5 20.75 20.25 20.25 0 0 1 20.25 41zM5.82 20.418c1.422-.158 4.363-.375 5.752.333a21.647 21.647 0 0 1 5.016 4.19l-5.768 6.695a14.334 14.334 0 0 0 23.288-14.807 27.192 27.192 0 0 1-3.563 3.136c-2.026-.223-1.042 2.279-1.042 2.279.854 5.543-2.085 6.227-2.085 6.227-4.008 4.117-7.169-4.828-7.169-4.828-.742-4.979-1.169-6.571-1.169-6.571-5.131-3.207-.076-4.375 1.011-4.561h.032c.262-.038.2-.041-.032 0-1.451.2-1.174-.683-2.053-2.279-.887-1.611-1.973.27-2.084 0s-.624 2.951-2.085 3.42-1.042-3.42-1.042-3.42c-2.82 4.319-3.742 3.217-4.038 1.8a14.382 14.382 0 0 0-2.969 8.386z"/>
</svg>
