<svg baseProfile="tiny" xmlns="http://www.w3.org/2000/svg" viewBox="0 0 170 130">
    <path d="M65 131H45c-1.6-.3-3.2-.8-4.8-1-13.1-1.9-25.4-5.9-38.1-13.2 18.6.7 34.8-2.9 48.7-12.9-6.2-2.6-12.5-4.7-18.2-7.9-6-3.4-9.8-8.9-12.5-16.2h13.3c-18-8.7-27.2-20.6-24.8-32 4.4 1.1 8.7 2.2 14.2 3.6C7 34 4.1 20.3 13.1 7.7c19.2 20.6 42.7 31.9 71 33.6.1-1.2.1-1.6.1-2.1-1.2-19.7 8-32.4 27-37.3.6-.2 1.2-.6 1.7-.9h11c5.8 2.7 11.6 5.5 17.5 8 2.1.9 4.7 1.9 6.7 1.4 5.8-1.5 11.5-3.8 17.2-5.8.3.3.6.6 1 .8-4.2 5.2-8.4 10.3-13 16 5.6-1.4 10.9-2.7 16.2-4-3.8 5-8.4 9.1-12.6 13.5-1.5 1.6-3.1 4-3.1 6-.9 42.5-28.8 78.7-69.9 90-6.2 1.8-12.6 2.8-18.9 4.1z"/>
</svg>
