<svg xmlns="http://www.w3.org/2000/svg" viewBox="0 0 200.01 200.01">
  <path
        d="M200 100a97.82 97.82 0 0 1-13.41 50.2 99.52 99.52 0 0 1-36.39 36.39A97.76 97.76 0 0 1 100 200a99 99 0 0 1-28.38-4.16q7.68-12.12 10.16-21.36 1.17-4.43 7-27.46 2.6 5.07 9.5 8.79a31 31 0 0 0 14.84 3.71 46.91 46.91 0 0 0 28.12-8.92q12.37-8.92 19.14-24.55t6.77-35.16A53.56 53.56 0 0 0 159.44 63Q151.7 50 137 41.8a67.05 67.05 0 0 0-33.2-8.2 83.66 83.66 0 0 0-25.52 3.77 66.56 66.56 0 0 0-20.12 10 68.48 68.48 0 0 0-14.21 14.41 59.67 59.67 0 0 0-8.72 16.87 56.74 56.74 0 0 0-2.8 17.44q0 13.54 5.21 23.83a29.36 29.36 0 0 0 15.23 14.46q3.9 1.56 4.95-2.6c.17-.61.52-2 1-4s.87-3.38 1-3.91a6 6 0 0 0-1.44-5.6q-6.64-7.94-6.64-19.65a47 47 0 0 1 13.69-33.83Q79 50.64 101 50.65q19.66 0 30.66 10.68t11 27.73q0 22.14-8.92 37.64t-22.85 15.49a15.93 15.93 0 0 1-12.76-5.66q-4.82-5.66-3-13.61 1-4.54 3.45-12.17t3.91-13.42A40.33 40.33 0 0 0 104 87.5a16.49 16.49 0 0 0-3.52-10.8q-3.52-4.3-10-4.3-8.07 0-13.67 7.42t-5.6 18.49q0 9.51 3.25 15.89l-12.87 54.42q-2.21 9.12-1.69 23.05a99.7 99.7 0 0 1-43.36-36.59A96.91 96.91 0 0 1 0 100a97.79 97.79 0 0 1 13.41-50.19 99.5 99.5 0 0 1 36.4-36.39A97.75 97.75 0 0 1 100 0a97.76 97.76 0 0 1 50.2 13.42 99.53 99.53 0 0 1 36.39 36.4A97.82 97.82 0 0 1 200 100z"/>
</svg>
