<svg xmlns="http://www.w3.org/2000/svg" viewBox="0 0 178.92 178.93">
    <path d="M177.1 107.49a89.36 89.36 0 0 1-5.21 16.8 90.53 90.53 0 0 1-8.25 15.22 92.17 92.17 0 0 1-10.92 13.23 91.24 91.24 0 0 1-13.22 10.9A89.48 89.48 0 0 1 7.04 54.65a89.58 89.58 0 0 1 47.6-47.6A89.46 89.46 0 0 1 177.1 107.49zm-45.25 43.68a74.68 74.68 0 0 0 31-46.62c.23-1.13.34-2.29.52-3.43-.62-.18-1.46-.41-2.41-.65l-.45-.12c-2.16-.54-5-1.17-8.44-1.73a109.81 109.81 0 0 0-34.74-.3 338.69 338.69 0 0 1 14.52 52.85zm-71.54 7.3a75 75 0 0 0 58.29 0l.41-.2a322.3 322.3 0 0 0-16.05-56.44l-.49.15a126.34 126.34 0 0 0-12.69 5.24c-.56.26-1.16.51-1.71.79-3.68 1.8-7.07 3.7-10.23 5.65l-1.75 1.1c-3 2-5.89 4-8.47 6l-1.18 1c-2.61 2.1-5 4.2-7.18 6.25a95.618 95.618 0 0 0-5.77 6.06c-.24.27-.5.55-.73.82a97.174 97.174 0 0 0-4.09 5.1l-.65.88c-1.08 1.5-2 2.89-2.78 4.07l-.35.56c-.7 1.13-1.3 2.15-1.67 2.85 1.43 1.13 2.87 2.26 4.37 3.28a75.72 75.72 0 0 0 12.71 6.91zM14.7 87.07c0 .81-.12 1.6-.12 2.41a76.17 76.17 0 0 0 1.52 15.08 74 74 0 0 0 4.36 14.06 76 76 0 0 0 6.9 12.72 77 77 0 0 0 6.23 7.53c.51-.8 1.27-2 2.16-3.26l.44-.64c.94-1.35 2.09-2.91 3.4-4.61l.77-1c1.4-1.78 3-3.68 4.76-5.7l.82-.9c1.94-2.15 4-4.38 6.4-6.65 2.31-2.22 4.88-4.47 7.59-6.7.42-.34.8-.67 1.23-1 2.66-2.12 5.53-4.19 8.56-6.18l1.73-1.12a107.59 107.59 0 0 1 9.9-5.57c.53-.25 1.07-.49 1.61-.74a99.26 99.26 0 0 1 11.8-4.74c1-.31 2-.55 2.95-.83-1.94-4.38-4-8.76-6.18-13.08-30.91 9.24-60.74 10.72-72.79 10.89-1.71.03-3.1.04-4.04.03zm43.12-65.39a74.4 74.4 0 0 0-30.45 25.93 76 76 0 0 0-6.9 12.72 74.24 74.24 0 0 0-4.2 13.4h3.34c2.75-.05 6.55-.19 11.19-.5a294.9 294.9 0 0 0 47.34-7q3.48-.82 7-1.76a464.13 464.13 0 0 0-27.32-42.79zm73.51 5.7a75.24 75.24 0 0 0-57-11.27c-.63.13-1.25.35-1.89.49a393.17 393.17 0 0 1 27.52 43.09c3-1.12 5.78-2.31 8.39-3.53l.15-.07c18.34-8.59 27.51-18.9 30.35-22.52a76.29 76.29 0 0 0-7.5-6.19zm31.5 47a75 75 0 0 0-4.37-14.05 76 76 0 0 0-6.9-12.72c-1.25-1.84-2.85-3.43-4.26-5.15-3.07 3.83-13.17 14.81-32.28 24.43l-.6.3c-2.7 1.34-5.52 2.63-8.58 3.88 1.8 3.69 3.54 7.42 5.15 11.19.57 1.35 1.05 2.64 1.6 4 2.72-.35 5.43-.58 8.11-.75l1.35-.07c2.29-.12 4.54-.2 6.76-.21h1.15c2.54 0 5 0 7.42.14h.52c2.16.1 4.24.23 6.23.38l1.42.12c1.95.16 3.81.35 5.54.54h.35c1.86.22 3.54.44 5.1.67l1.12.16c1.16.18 2.22.34 3.15.5l.77.13c1.11.19 2 .36 2.72.5a76.5 76.5 0 0 0-1.47-14z"/>
</svg>
